<?xml version="1.0" encoding="UTF-8" standalone="no"?>
<!-- Created with Inkscape (http://www.inkscape.org/) -->

<svg
   width="53.41552mm"
   height="50.235794mm"
   viewBox="0 0 53.41552 50.235794"
   version="1.1"
   id="svg5"
   xml:space="preserve"
   xmlns:inkscape="http://www.inkscape.org/namespaces/inkscape"
   xmlns:sodipodi="http://sodipodi.sourceforge.net/DTD/sodipodi-0.dtd"
   xmlns="http://www.w3.org/2000/svg"
   xmlns:svg="http://www.w3.org/2000/svg"><sodipodi:namedview
     id="namedview7"
     pagecolor="#ffffff"
     bordercolor="#000000"
     borderopacity="0.25"
     inkscape:showpageshadow="2"
     inkscape:pageopacity="0.0"
     inkscape:pagecheckerboard="0"
     inkscape:deskcolor="#d1d1d1"
     inkscape:document-units="mm"
     showgrid="false" /><defs
     id="defs2" /><g
     inkscape:label="Layer 1"
     inkscape:groupmode="layer"
     id="layer1"
     transform="translate(-92.821635,-136.53897)"><path
       style="fill:#000000;stroke-width:0.264583"
       d="m 107.39529,186.30741 c -4.16644,-1.43906 -5.61051,-6.54467 -2.86806,-10.14021 l 0.71481,-0.93717 -2.9226,-16.10459 c -1.60743,-8.85752 -3.04806,-16.72966 -3.201401,-17.49365 l -0.278801,-1.38906 h -2.47558 c -2.35927,0 -2.501344,-0.0327 -3.02395,-0.69714 -0.720134,-0.9155 -0.692326,-1.56421 0.101062,-2.3576 0.60548,-0.60548 0.833784,-0.6494 3.373437,-0.64902 4.457253,6.7e-4 5.237973,0.66916 6.037343,5.16937 0.28331,1.59501 0.57872,3.16791 0.65645,3.49533 l 0.14134,0.59531 h 19.71491 c 21.57238,0 20.78827,-0.0556 22.15767,1.57182 0.52837,0.62793 0.71525,1.13985 0.71525,1.95926 0,1.87268 -3.10274,18.33768 -3.59811,19.09371 -0.97371,1.48606 -0.55009,1.45229 -18.21687,1.45229 -15.61477,0 -16.28502,0.02 -16.28502,0.48504 0,0.26677 0.1355,1.15974 0.30111,1.98438 l 0.30111,1.49933 15.11087,0.006 c 14.06243,0.005 15.18471,0.0394 16.17508,0.48925 3.30838,1.50289 4.738,5.35045 3.20847,8.63499 -0.80536,1.72944 -2.19846,2.92297 -4.03484,3.45682 -1.90003,0.55235 -3.32282,0.34257 -5.13768,-0.75751 -2.43929,-1.47858 -3.55861,-4.36419 -2.8182,-7.26529 l 0.21946,-0.8599 h -7.98938 -7.98938 l 0.16329,0.59531 c 0.44293,1.61481 0.45722,2.60695 0.0573,3.98249 -0.56985,1.96021 -2.28799,3.71491 -4.19081,4.27998 -1.72899,0.51345 -2.39029,0.4975 -4.11831,-0.0993 z m 4.07113,-4.01656 c 0.879,-0.82578 1.09904,-2.22207 0.51969,-3.29785 -1.3642,-2.53316 -5.18444,-1.6101 -5.16344,1.24761 0.009,1.22022 0.26003,1.68457 1.3145,2.43124 0.85907,0.6083 2.47277,0.42363 3.32925,-0.381 z m 27.18137,0.51883 c 0.99736,-0.51005 1.49186,-1.35807 1.49808,-2.56907 0.008,-1.59723 -1.06766,-2.69163 -2.64605,-2.69163 -0.91192,0 -1.26836,0.16321 -2.03858,0.93343 -0.83892,0.83893 -0.91888,1.04191 -0.78971,2.00491 0.27515,2.05139 2.25033,3.20501 3.97626,2.32236 z m 1.21526,-17.76226 c 0.66884,-3.34225 2.66996,-14.63569 2.66996,-15.06811 0,-0.45409 -0.88319,-0.47616 -19.05,-0.47616 -18.15378,0 -19.05,0.0224 -19.05,0.47528 0,0.40145 2.33427,13.51786 2.79947,15.73045 l 0.15299,0.7276 h 16.0998 16.0998 z"
       id="path179" /></g></svg>
