<?xml version="1.0" encoding="UTF-8" standalone="no"?>
<!-- Created with Inkscape (http://www.inkscape.org/) -->

<svg
   width="82.029045mm"
   height="29.438898mm"
   viewBox="0 0 82.029044 29.438898"
   version="1.1"
   id="svg5"
   inkscape:version="1.2.2 (1:1.2.2+202212051552+b0a8486541)"
   sodipodi:docname="logo.svg"
   xmlns:inkscape="http://www.inkscape.org/namespaces/inkscape"
   xmlns:sodipodi="http://sodipodi.sourceforge.net/DTD/sodipodi-0.dtd"
   xmlns:xlink="http://www.w3.org/1999/xlink"
   xmlns="http://www.w3.org/2000/svg"
   xmlns:svg="http://www.w3.org/2000/svg">
  <sodipodi:namedview
     id="namedview7"
     pagecolor="#ffffff"
     bordercolor="#000000"
     borderopacity="0.25"
     inkscape:showpageshadow="2"
     inkscape:pageopacity="0.0"
     inkscape:pagecheckerboard="0"
     inkscape:deskcolor="#d1d1d1"
     inkscape:document-units="mm"
     showgrid="false"
     inkscape:zoom="0.35099607"
     inkscape:cx="1538.4788"
     inkscape:cy="742.17355"
     inkscape:window-width="1846"
     inkscape:window-height="1016"
     inkscape:window-x="0"
     inkscape:window-y="0"
     inkscape:window-maximized="1"
     inkscape:current-layer="layer1" />
  <defs
     id="defs2">
    <linearGradient
       inkscape:collect="always"
       id="linearGradient261">
      <stop
         style="stop-color:#ff6600;stop-opacity:1"
         offset="0"
         id="stop257" />
      <stop
         style="stop-color:#ffd42a;stop-opacity:1"
         offset="0.31393343"
         id="stop329" />
      <stop
         style="stop-color:#ffe680;stop-opacity:1"
         offset="0.48596311"
         id="stop333" />
      <stop
         style="stop-color:#ffcc00;stop-opacity:1"
         offset="0.69541276"
         id="stop331" />
      <stop
         style="stop-color:#d45500;stop-opacity:1"
         offset="1"
         id="stop259" />
    </linearGradient>
    <linearGradient
       inkscape:collect="always"
       xlink:href="#linearGradient261"
       id="linearGradient263"
       x1="274.41882"
       y1="108.9582"
       x2="608.64551"
       y2="37.565498"
       gradientUnits="userSpaceOnUse" />
    <linearGradient
       inkscape:collect="always"
       xlink:href="#linearGradient261"
       id="linearGradient429"
       gradientUnits="userSpaceOnUse"
       x1="274.41882"
       y1="108.9582"
       x2="608.64551"
       y2="37.565498" />
    <linearGradient
       inkscape:collect="always"
       xlink:href="#linearGradient261"
       id="linearGradient431"
       gradientUnits="userSpaceOnUse"
       x1="274.41882"
       y1="108.9582"
       x2="608.64551"
       y2="37.565498" />
    <linearGradient
       inkscape:collect="always"
       xlink:href="#linearGradient261"
       id="linearGradient433"
       gradientUnits="userSpaceOnUse"
       x1="274.41882"
       y1="108.9582"
       x2="608.64551"
       y2="37.565498" />
    <linearGradient
       inkscape:collect="always"
       xlink:href="#linearGradient261"
       id="linearGradient435"
       gradientUnits="userSpaceOnUse"
       x1="274.41882"
       y1="108.9582"
       x2="608.64551"
       y2="37.565498" />
    <linearGradient
       inkscape:collect="always"
       xlink:href="#linearGradient261"
       id="linearGradient437"
       gradientUnits="userSpaceOnUse"
       x1="274.41882"
       y1="108.9582"
       x2="608.64551"
       y2="37.565498" />
    <linearGradient
       inkscape:collect="always"
       xlink:href="#linearGradient261"
       id="linearGradient439"
       gradientUnits="userSpaceOnUse"
       x1="274.41882"
       y1="108.9582"
       x2="608.64551"
       y2="37.565498" />
    <linearGradient
       inkscape:collect="always"
       xlink:href="#linearGradient261"
       id="linearGradient441"
       gradientUnits="userSpaceOnUse"
       x1="274.41882"
       y1="108.9582"
       x2="608.64551"
       y2="37.565498" />
    <linearGradient
       inkscape:collect="always"
       xlink:href="#linearGradient261"
       id="linearGradient443"
       gradientUnits="userSpaceOnUse"
       x1="274.41882"
       y1="108.9582"
       x2="608.64551"
       y2="37.565498" />
    <linearGradient
       inkscape:collect="always"
       xlink:href="#linearGradient261"
       id="linearGradient445"
       gradientUnits="userSpaceOnUse"
       x1="274.41882"
       y1="108.9582"
       x2="608.64551"
       y2="37.565498" />
    <filter
       style="color-interpolation-filters:sRGB"
       inkscape:label="Drop Shadow"
       id="filter433"
       x="-0.019944981"
       y="-0.039981689"
       width="1.0334368"
       height="1.0990764">
      <feFlood
         flood-opacity="0.498039"
         flood-color="rgb(0,0,0)"
         result="flood"
         id="feFlood423" />
      <feComposite
         in="flood"
         in2="SourceGraphic"
         operator="in"
         result="composite1"
         id="feComposite425" />
      <feGaussianBlur
         in="composite1"
         stdDeviation="2"
         result="blur"
         id="feGaussianBlur427" />
      <feOffset
         dx="-2.29584"
         dy="2.29461"
         result="offset"
         id="feOffset429" />
      <feComposite
         in="SourceGraphic"
         in2="offset"
         operator="over"
         result="composite2"
         id="feComposite431" />
    </filter>
  </defs>
  <g
     inkscape:label="Layer 1"
     inkscape:groupmode="layer"
     id="layer1"
     transform="translate(-262.30371,-24.748403)">
    <g
       id="g649"
       transform="matrix(0.22310718,0,0,0.22310718,205.01179,20.058842)"
       style="filter:url(#filter433)">
      <g
         aria-label="instrumentos clássicos"
         id="text113-6-9"
         style="font-size:41.7083px;font-family:Chilanka;-inkscape-font-specification:Chilanka;text-align:center;text-anchor:middle;fill:#e9c6af;stroke-width:3.2516;stroke-linecap:round;stop-color:#000000"
         transform="matrix(0.81909091,0,0,0.81909091,79.920606,22.098716)">
        <path
           d="m 280.69564,150.69626 v -15.64061 h -1.54321 v 15.64061 z m -0.58392,-20.39536 c 0.62562,0 1.29296,-0.54221 1.29296,-1.33467 0,-0.75075 -0.66734,-1.33466 -1.29296,-1.33466 -0.66733,0 -1.33467,0.58391 -1.33467,1.33466 0,0.79246 0.66734,1.33467 1.33467,1.33467 z"
           style="font-family:'Josefin Sans Std';-inkscape-font-specification:'Josefin Sans Std';fill:#e9c6af"
           id="path574" />
        <path
           d="m 299.92307,150.69626 v -11.26124 c -0.0834,-2.75275 -2.12713,-4.67133 -5.42208,-4.67133 -3.12812,0.0834 -5.54721,1.83516 -6.71504,4.50449 l -0.16683,-4.17083 h -1.37638 v 15.59891 h 1.54321 v -8.71704 c 0,-3.37837 3.16983,-5.83916 6.75675,-5.83916 2.58591,0.12513 3.75374,1.54321 3.83716,3.29496 v 11.26124 z"
           style="font-family:'Josefin Sans Std';-inkscape-font-specification:'Josefin Sans Std';fill:#e9c6af"
           id="path576" />
        <path
           d="m 313.2279,136.64056 c -1.16783,-1.33466 -3.0447,-1.79346 -4.21254,-1.79346 -2.0437,0 -4.33766,1.41809 -4.33766,4.29596 0,2.96129 2.46079,3.46179 3.96229,3.96229 1.79346,0.58391 3.67033,1.20954 3.67033,3.37837 0,2.25225 -2.04371,3.08641 -3.25325,3.16983 -1.20954,0.0834 -3.21154,-0.62562 -4.004,-1.71004 l -0.91758,1.12612 c 1.12613,1.41809 3.21154,1.96029 4.79646,1.96029 3.46179,0 4.92158,-2.58591 4.92158,-4.62962 0,-2.96129 -2.96129,-4.0457 -5.21354,-4.79645 -1.45979,-0.5005 -2.46079,-1.04271 -2.46079,-2.66933 0,-2.002 1.58491,-2.71104 2.83616,-2.71104 1.41809,0 2.96129,0.91758 3.42008,1.5015 z"
           style="font-family:'Josefin Sans Std';-inkscape-font-specification:'Josefin Sans Std';fill:#e9c6af"
           id="path578" />
        <path
           d="m 321.73632,150.69626 v -14.26424 h 4.79645 v -1.37637 h -4.79645 v -10.17683 h -1.54321 v 10.17683 h -2.71104 v 1.37637 h 2.71104 v 14.26424 z"
           style="font-family:'Josefin Sans Std';-inkscape-font-specification:'Josefin Sans Std';fill:#e9c6af"
           id="path580" />
        <path
           d="m 329.74424,135.09735 v 15.59891 h 1.5432 v -8.71704 c 0.41709,-3.29495 3.04471,-5.71403 6.5065,-5.83916 l 0.0417,-1.37637 c -3.04471,0.12512 -5.38038,1.87687 -6.54821,4.50449 l -0.16683,-4.17083 z"
           style="font-family:'Josefin Sans Std';-inkscape-font-specification:'Josefin Sans Std';fill:#e9c6af"
           id="path582" />
        <path
           d="m 355.64506,150.69626 v -15.93257 h -1.54321 v 8.71703 c 0,3.37837 -3.16983,5.83916 -6.75674,5.83916 -2.58592,-0.12512 -3.75375,-1.5432 -3.83717,-3.29495 v -10.96928 h -1.5432 v 10.96928 c 0.0834,2.75275 2.12712,4.67133 5.42208,4.67133 3.12812,-0.0834 5.67232,-1.71004 6.84016,-4.37937 l -0.12513,1.87687 v 2.5025 z"
           style="font-family:'Josefin Sans Std';-inkscape-font-specification:'Josefin Sans Std';fill:#e9c6af"
           id="path584" />
        <path
           d="m 388.3026,150.69626 v -11.26124 c -0.0834,-2.75275 -2.12712,-4.67133 -5.42208,-4.67133 -3.12812,0.0834 -5.5472,1.83516 -6.71503,4.67133 -0.0834,-2.75275 -2.12713,-4.67133 -5.42208,-4.67133 -3.12813,0.0834 -5.54721,1.83516 -6.71504,4.50449 l -0.16683,-4.17083 h -1.37638 v 15.59891 h 1.54321 v -8.71704 c 0,-3.37837 3.16983,-5.83916 6.75675,-5.83916 2.58591,0.12513 3.75374,1.54321 3.83716,3.29496 v 11.26124 h 1.54321 v -8.96729 c 0,-3.25324 3.25324,-5.58891 6.75674,-5.58891 2.58592,0.12513 3.75375,1.54321 3.83717,3.29496 v 11.26124 z"
           style="font-family:'Josefin Sans Std';-inkscape-font-specification:'Josefin Sans Std';fill:#e9c6af"
           id="path586" />
        <path
           d="m 407.02954,140.43602 c -1.04271,-3.25325 -3.5452,-5.63062 -7.21553,-5.63062 -4.5045,0 -8.13312,3.67033 -8.13312,8.13311 0,4.46279 3.62862,8.17483 8.13312,8.17483 2.21054,0 4.12912,-0.87587 5.5472,-2.25225 l -1.04271,-0.83416 c -1.16783,1.08441 -2.71104,1.71004 -4.50449,1.71004 -2.91959,0 -5.17183,-1.66833 -6.13113,-4.12912 z m -13.80545,2.50249 c 0,-3.87887 2.71104,-6.75674 6.58992,-6.75674 2.66933,0 4.37937,1.33467 5.42207,3.42008 l -11.92857,4.62962 c -0.0417,-0.41708 -0.0834,-0.83416 -0.0834,-1.29296 z"
           style="font-family:'Josefin Sans Std';-inkscape-font-specification:'Josefin Sans Std';fill:#e9c6af"
           id="path588" />
        <path
           d="m 425.46451,150.69626 v -11.26124 c -0.0834,-2.75275 -2.12713,-4.67133 -5.42208,-4.67133 -3.12813,0.0834 -5.54721,1.83516 -6.71504,4.50449 l -0.16683,-4.17083 h -1.37638 v 15.59891 h 1.54321 v -8.71704 c 0,-3.37837 3.16983,-5.83916 6.75674,-5.83916 2.58592,0.12513 3.75375,1.54321 3.83717,3.29496 v 11.26124 z"
           style="font-family:'Josefin Sans Std';-inkscape-font-specification:'Josefin Sans Std';fill:#e9c6af"
           id="path590" />
        <path
           d="m 433.22215,150.69626 v -14.26424 h 4.79645 v -1.37637 h -4.79645 v -10.17683 h -1.54321 v 10.17683 h -2.71104 v 1.37637 h 2.71104 v 14.26424 z"
           style="font-family:'Josefin Sans Std';-inkscape-font-specification:'Josefin Sans Std';fill:#e9c6af"
           id="path592" />
        <path
           d="m 446.98581,151.07163 c 4.58791,0 8.17483,-3.71204 8.17483,-8.17482 0,-4.46279 -3.58692,-8.13312 -8.17483,-8.13312 -4.5045,0 -8.13312,3.67033 -8.13312,8.13312 0,4.46278 3.62862,8.17482 8.13312,8.17482 z m 0,-1.37637 c -3.87887,0 -6.58991,-3.003 -6.58991,-6.79845 0,-3.87888 2.71104,-6.75675 6.58991,-6.75675 3.92058,0 6.63162,2.87787 6.63162,6.75675 0,3.79545 -2.71104,6.79845 -6.63162,6.79845 z"
           style="font-family:'Josefin Sans Std';-inkscape-font-specification:'Josefin Sans Std';fill:#e9c6af"
           id="path594" />
        <path
           d="m 466.38011,136.64056 c -1.16784,-1.33466 -3.04471,-1.79346 -4.21254,-1.79346 -2.04371,0 -4.33767,1.41809 -4.33767,4.29596 0,2.96129 2.46079,3.46179 3.96229,3.96229 1.79346,0.58391 3.67033,1.20954 3.67033,3.37837 0,2.25225 -2.0437,3.08641 -3.25324,3.16983 -1.20954,0.0834 -3.21154,-0.62562 -4.004,-1.71004 l -0.91758,1.12612 c 1.12612,1.41809 3.21154,1.96029 4.79645,1.96029 3.46179,0 4.92158,-2.58591 4.92158,-4.62962 0,-2.96129 -2.96129,-4.0457 -5.21354,-4.79645 -1.45979,-0.5005 -2.46079,-1.04271 -2.46079,-2.66933 0,-2.002 1.58492,-2.71104 2.83617,-2.71104 1.41808,0 2.96129,0.91758 3.42008,1.5015 z"
           style="font-family:'Josefin Sans Std';-inkscape-font-specification:'Josefin Sans Std';fill:#e9c6af"
           id="path596" />
        <path
           d="m 484.14773,142.89681 c 0,4.46278 3.62862,8.13311 8.13312,8.13311 2.12712,0 4.004,-0.79245 5.42208,-2.08541 l -0.83417,-1.04271 c -1.16783,1.08442 -2.71104,1.75175 -4.58791,1.75175 -3.87887,0 -6.58991,-2.87787 -6.58991,-6.75674 0,-3.87888 2.71104,-6.75675 6.58991,-6.75675 1.87687,0 3.42008,0.66733 4.58791,1.75175 l 0.83417,-1.04271 c -1.41808,-1.29295 -3.29496,-2.08541 -5.42208,-2.08541 -4.5045,0 -8.13312,3.67033 -8.13312,8.13312 z"
           style="font-family:'Josefin Sans Std';-inkscape-font-specification:'Josefin Sans Std';fill:#e9c6af"
           id="path598" />
        <path
           d="m 503.12493,150.69626 v -31.28123 h -1.5015 v 31.28123 z"
           style="font-family:'Josefin Sans Std';-inkscape-font-specification:'Josefin Sans Std';fill:#e9c6af"
           id="path600" />
        <path
           d="m 514.34439,130.71798 h 1.37637 l 3.92058,-5.5472 h -1.5432 z m 8.88387,19.97828 v -15.64061 h -1.33467 l -0.20854,4.29595 c -1.12612,-2.71104 -3.5035,-4.58791 -6.79845,-4.58791 -4.5045,0 -8.13312,3.67033 -8.13312,8.13312 0,4.46278 3.62862,8.17482 8.13312,8.17482 3.29495,0 5.79745,-2.0437 6.92358,-4.75474 l -0.12513,1.87687 v 2.5025 z m -8.34166,-1.001 c -3.87887,0 -6.58991,-3.003 -6.58991,-6.79845 0,-3.87888 2.71104,-6.75675 6.58991,-6.75675 3.92058,0 6.63162,2.87787 6.63162,6.75675 0,3.79545 -2.71104,6.79845 -6.63162,6.79845 z"
           style="font-family:'Josefin Sans Std';-inkscape-font-specification:'Josefin Sans Std';fill:#e9c6af"
           id="path602" />
        <path
           d="m 537.82607,136.64056 c -1.16783,-1.33466 -3.0447,-1.79346 -4.21253,-1.79346 -2.04371,0 -4.33767,1.41809 -4.33767,4.29596 0,2.96129 2.46079,3.46179 3.96229,3.96229 1.79346,0.58391 3.67033,1.20954 3.67033,3.37837 0,2.25225 -2.0437,3.08641 -3.25325,3.16983 -1.20954,0.0834 -3.21153,-0.62562 -4.00399,-1.71004 l -0.91758,1.12612 c 1.12612,1.41809 3.21153,1.96029 4.79645,1.96029 3.46179,0 4.92158,-2.58591 4.92158,-4.62962 0,-2.96129 -2.96129,-4.0457 -5.21354,-4.79645 -1.45979,-0.5005 -2.46079,-1.04271 -2.46079,-2.66933 0,-2.002 1.58492,-2.71104 2.83617,-2.71104 1.41808,0 2.96129,0.91758 3.42008,1.5015 z"
           style="font-family:'Josefin Sans Std';-inkscape-font-specification:'Josefin Sans Std';fill:#e9c6af"
           id="path604" />
        <path
           d="m 551.25601,136.64056 c -1.16784,-1.33466 -3.04471,-1.79346 -4.21254,-1.79346 -2.04371,0 -4.33767,1.41809 -4.33767,4.29596 0,2.96129 2.46079,3.46179 3.96229,3.96229 1.79346,0.58391 3.67033,1.20954 3.67033,3.37837 0,2.25225 -2.0437,3.08641 -3.25324,3.16983 -1.20954,0.0834 -3.21154,-0.62562 -4.004,-1.71004 l -0.91758,1.12612 c 1.12612,1.41809 3.21154,1.96029 4.79645,1.96029 3.46179,0 4.92158,-2.58591 4.92158,-4.62962 0,-2.96129 -2.96129,-4.0457 -5.21354,-4.79645 -1.45979,-0.5005 -2.46079,-1.04271 -2.46079,-2.66933 0,-2.002 1.58492,-2.71104 2.83617,-2.71104 1.41808,0 2.96129,0.91758 3.42008,1.5015 z"
           style="font-family:'Josefin Sans Std';-inkscape-font-specification:'Josefin Sans Std';fill:#e9c6af"
           id="path606" />
        <path
           d="m 557.80413,150.69626 v -15.64061 h -1.54321 v 15.64061 z m -0.58392,-20.39536 c 0.62562,0 1.29296,-0.54221 1.29296,-1.33467 0,-0.75075 -0.66734,-1.33466 -1.29296,-1.33466 -0.66733,0 -1.33467,0.58391 -1.33467,1.33466 0,0.79246 0.66734,1.33467 1.33467,1.33467 z"
           style="font-family:'Josefin Sans Std';-inkscape-font-specification:'Josefin Sans Std';fill:#e9c6af"
           id="path608" />
        <path
           d="m 560.38993,142.89681 c 0,4.46278 3.62863,8.13311 8.13312,8.13311 2.12713,0 4.004,-0.79245 5.42208,-2.08541 l -0.83416,-1.04271 c -1.16784,1.08442 -2.71104,1.75175 -4.58792,1.75175 -3.87887,0 -6.58991,-2.87787 -6.58991,-6.75674 0,-3.87888 2.71104,-6.75675 6.58991,-6.75675 1.87688,0 3.42008,0.66733 4.58792,1.75175 l 0.83416,-1.04271 c -1.41808,-1.29295 -3.29495,-2.08541 -5.42208,-2.08541 -4.50449,0 -8.13312,3.67033 -8.13312,8.13312 z"
           style="font-family:'Josefin Sans Std';-inkscape-font-specification:'Josefin Sans Std';fill:#e9c6af"
           id="path610" />
        <path
           d="m 584.74744,151.07163 c 4.58791,0 8.17482,-3.71204 8.17482,-8.17482 0,-4.46279 -3.58691,-8.13312 -8.17482,-8.13312 -4.5045,0 -8.13312,3.67033 -8.13312,8.13312 0,4.46278 3.62862,8.17482 8.13312,8.17482 z m 0,-1.37637 c -3.87888,0 -6.58992,-3.003 -6.58992,-6.79845 0,-3.87888 2.71104,-6.75675 6.58992,-6.75675 3.92058,0 6.63162,2.87787 6.63162,6.75675 0,3.79545 -2.71104,6.79845 -6.63162,6.79845 z"
           style="font-family:'Josefin Sans Std';-inkscape-font-specification:'Josefin Sans Std';fill:#e9c6af"
           id="path612" />
        <path
           d="m 604.14172,136.64056 c -1.16783,-1.33466 -3.04471,-1.79346 -4.21254,-1.79346 -2.04371,0 -4.33766,1.41809 -4.33766,4.29596 0,2.96129 2.46079,3.46179 3.96228,3.96229 1.79346,0.58391 3.67034,1.20954 3.67034,3.37837 0,2.25225 -2.04371,3.08641 -3.25325,3.16983 -1.20954,0.0834 -3.21154,-0.62562 -4.004,-1.71004 l -0.91758,1.12612 c 1.12612,1.41809 3.21154,1.96029 4.79645,1.96029 3.46179,0 4.92158,-2.58591 4.92158,-4.62962 0,-2.96129 -2.96129,-4.0457 -5.21354,-4.79645 -1.45979,-0.5005 -2.46078,-1.04271 -2.46078,-2.66933 0,-2.002 1.58491,-2.71104 2.83616,-2.71104 1.41808,0 2.96129,0.91758 3.42008,1.5015 z"
           style="font-family:'Josefin Sans Std';-inkscape-font-specification:'Josefin Sans Std';fill:#e9c6af"
           id="path614" />
      </g>
      <g
         aria-label="Casa Mozart"
         id="text113-9-7"
         style="font-size:41.652px;font-family:Chilanka;-inkscape-font-specification:Chilanka;text-align:center;text-anchor:middle;fill:url(#linearGradient263);fill-opacity:1;stroke-width:3.24721;stroke-linecap:round;stop-color:#000000">
        <path
           d="m 278.57078,112.64177 c 15.59916,0 35.06252,-26.825674 42.56721,-33.333799 0.81351,-0.671151 3.35575,-2.725278 3.35575,-4.169268 l -0.0203,-0.223717 c -0.0407,-0.223717 -0.18304,-0.325406 -0.34574,-0.325406 -0.73217,0 -2.33886,1.586355 -3.82353,3.254062 -5.32853,5.897989 -28.18831,32.438938 -43.03498,32.438938 -3.09135,0 -5.83697,-1.15926 -8.01312,-3.88454 -1.78974,-2.2575 -2.60325,-5.47089 -2.60325,-9.314753 0,-18.853225 19.46336,-52.695475 36.22178,-61.461106 2.64393,-1.382976 5.3692,-2.21683 7.70806,-2.21683 3.59981,0 6.26407,1.972775 6.26407,6.955559 0,1.301625 -0.18304,2.826966 -0.5898,4.576025 -1.81007,7.870764 -7.40299,17.632951 -10.55536,21.70053 -0.36609,0.467771 -1.52535,2.11514 -1.52535,3.2744 0,0.650813 0.36609,1.138922 1.50501,1.138922 0.20338,0 0.40676,-0.02034 0.65081,-0.04068 1.0169,-0.122027 1.78974,-1.016894 2.21683,-1.932099 2.29818,-4.860756 8.46056,-15.294094 9.64016,-24.120739 0.14237,-1.077908 0.20338,-2.094803 0.20338,-3.030346 0,-7.484344 -4.31163,-10.372324 -9.35543,-10.372324 h -0.0407 c -3.07102,0 -6.42677,1.077908 -9.2334,2.847305 -15.09071,9.518133 -35.87604,38.804695 -35.87604,59.467992 0,5.084473 1.26095,9.660504 4.16927,13.280644 3.1117,3.88454 6.69117,5.49123 10.51469,5.49123 z"
           style="font-family:'British Castilla';-inkscape-font-specification:'British Castilla';fill:url(#linearGradient429);fill-opacity:1"
           id="path555" />
        <path
           d="m 320.4465,89.558268 c 0.73216,0 1.48466,-0.203379 2.19649,-0.630475 3.98622,-2.399871 6.77252,-7.504682 10.18928,-10.433338 0.85419,-0.732164 1.36264,-1.077908 1.62703,-1.077908 0.16271,0 0.22372,0.122027 0.22372,0.366082 v 0.08135 c -0.061,1.871086 -0.67115,3.742172 -0.67115,5.613258 v 0.08135 c 0.0407,2.98967 1.36264,4.128592 3.33541,4.128592 5.51157,0 16.12795,-8.907997 18.16174,-11.551922 0.52878,-0.691489 0.77284,-1.179598 0.77284,-1.423653 0,-0.122027 -0.061,-0.183041 -0.1627,-0.183041 -0.28473,0 -0.8542,0.406758 -1.62704,1.220274 -0.061,0.142365 -11.02313,10.413 -15.29409,10.413 -1.03723,0 -1.68804,-0.610137 -1.68804,-2.115141 0,-0.447433 0.061,-0.996556 0.18304,-1.606693 0.30507,-1.566018 0.69149,-3.010008 0.69149,-4.270957 0,-0.976219 -0.24406,-1.871086 -0.93555,-2.623588 -0.28473,-0.305069 -0.63047,-0.447434 -1.05757,-0.447434 -3.98622,0 -13.62638,12.324762 -15.55848,12.324762 -0.22372,0 -0.34575,-0.162703 -0.34575,-0.528785 0,-0.183041 0.0203,-0.447434 0.10169,-0.752502 0.95588,-4.209943 9.64016,-10.880772 13.46368,-12.019694 0.44744,-0.122027 0.65082,-0.447433 0.65082,-0.833853 0,-0.894867 -1.09825,-2.176154 -2.88798,-2.440547 -0.24406,-0.02034 -0.50845,-0.04068 -0.77284,-0.04068 -6.12171,0 -14.60261,10.229959 -14.60261,14.826323 0,0.223716 0.0203,0.427095 0.061,0.630474 0.4271,2.033789 2.09481,3.294739 3.94556,3.294739 z"
           style="font-family:'British Castilla';-inkscape-font-specification:'British Castilla';fill:url(#linearGradient431);fill-opacity:1"
           id="path557" />
        <path
           d="m 353.53624,100.01194 c 0.85419,0 1.91176,-0.54912 3.05068,-1.789731 1.78974,-2.237168 2.46089,-4.230281 2.46089,-6.935221 0,-0.569461 -0.0203,-1.159259 -0.0814,-1.810072 -0.0407,-0.488109 -0.28473,-0.833853 -0.28473,-1.138922 0,-0.183041 0.0813,-0.345744 0.34574,-0.508447 4.20995,-5.430217 11.63328,-10.209621 15.05004,-11.795977 0.50845,-0.223717 0.65081,-0.467771 0.73217,-0.813515 l -0.32541,-0.284731 c -4.06758,1.44399 -10.98246,5.918326 -16.2093,11.673949 -0.81352,-1.83041 -1.91176,-4.942107 -1.91176,-8.013129 0,-2.237168 0.5898,-4.474336 2.27784,-6.182718 0.38642,-0.406758 1.03723,-0.813516 1.62703,-0.813516 0.12203,0 0.24406,0 0.34575,0.04068 0.061,0.02034 0.10169,0.08135 0.10169,0.183041 0,0.345744 -0.32541,1.098246 -0.63048,1.667707 -0.44743,0.854191 -0.63047,1.525342 -0.63047,2.013451 0,0.833854 0.50844,1.199936 1.11858,1.199936 0.73217,0 1.58636,-0.569461 1.64737,-1.443991 0.0203,-0.244054 0.0203,-0.488109 0.0203,-0.711826 0,-2.338857 -0.91521,-4.108254 -2.82697,-4.108254 h -0.0203 c -0.58979,0 -1.26095,0.162703 -2.01345,0.508447 -3.78284,1.769397 -4.96244,4.352309 -4.96244,7.118262 0,3.843862 2.31852,7.992791 3.17271,10.677393 -2.96933,3.071021 -4.12859,6.142043 -4.12859,8.297859 0,1.810073 0.81351,2.969325 2.07446,2.969325 z m 0.34575,-1.443987 c -0.69149,0 -1.26095,-0.691488 -1.26095,-1.952437 v -0.223717 c 0.061,-1.138922 0.97622,-4.799742 3.29473,-6.508125 0.22372,1.301625 0.32541,2.440547 0.32541,3.437103 0,3.660821 -1.32196,5.247176 -2.35919,5.247176 z"
           style="font-family:'British Castilla';-inkscape-font-specification:'British Castilla';fill:url(#linearGradient433);fill-opacity:1"
           id="path559" />
        <path
           d="m 370.80312,89.558268 c 0.73216,0 1.48466,-0.203379 2.19649,-0.630475 3.98623,-2.399871 6.77252,-7.504682 10.18928,-10.433338 0.85419,-0.732164 1.36264,-1.077908 1.62703,-1.077908 0.16271,0 0.22372,0.122027 0.22372,0.366082 v 0.08135 c -0.061,1.871086 -0.67115,3.742172 -0.67115,5.613258 v 0.08135 c 0.0407,2.98967 1.36264,4.128592 3.33541,4.128592 5.51157,0 16.12795,-8.907997 18.16174,-11.551922 0.52879,-0.691489 0.77284,-1.179598 0.77284,-1.423653 0,-0.122027 -0.061,-0.183041 -0.1627,-0.183041 -0.28473,0 -0.85419,0.406758 -1.62703,1.220274 -0.061,0.142365 -11.02314,10.413 -15.2941,10.413 -1.03723,0 -1.68804,-0.610137 -1.68804,-2.115141 0,-0.447433 0.061,-0.996556 0.18304,-1.606693 0.30507,-1.566018 0.69149,-3.010008 0.69149,-4.270957 0,-0.976219 -0.24406,-1.871086 -0.93555,-2.623588 -0.28473,-0.305069 -0.63047,-0.447434 -1.05757,-0.447434 -3.98622,0 -13.62638,12.324762 -15.55848,12.324762 -0.22372,0 -0.34575,-0.162703 -0.34575,-0.528785 0,-0.183041 0.0203,-0.447434 0.10169,-0.752502 0.95588,-4.209943 9.64016,-10.880772 13.46369,-12.019694 0.44743,-0.122027 0.65081,-0.447433 0.65081,-0.833853 0,-0.894867 -1.09825,-2.176154 -2.88798,-2.440547 -0.24406,-0.02034 -0.50845,-0.04068 -0.77284,-0.04068 -6.12171,0 -14.60261,10.229959 -14.60261,14.826323 0,0.223716 0.0203,0.427095 0.061,0.630474 0.42709,2.033789 2.0948,3.294739 3.94555,3.294739 z"
           style="font-family:'British Castilla';-inkscape-font-specification:'British Castilla';fill:url(#linearGradient435);fill-opacity:1"
           id="path561" />
        <path
           d="m 413.77708,112.174 c 0.34574,0 0.69149,-0.22371 0.85419,-0.56946 0.93554,-2.13548 1.58635,-3.96589 2.27784,-6.16238 7.68773,-24.20209 23.12418,-48.810938 34.71678,-60.179819 4.12859,-4.169267 6.9759,-5.897988 8.84698,-5.897988 2.23717,0 3.09136,2.501561 3.09136,6.26407 0,9.518133 -5.40987,27.069733 -7.05724,32.39826 -3.64049,7.016573 -6.18272,13.382333 -6.52847,18.32444 l -0.0407,1.016895 c 0,1.810072 0.42709,2.60325 0.99655,2.60325 0.75251,0 1.78974,-1.301625 2.54224,-3.355752 2.15582,-5.938664 4.18961,-11.979018 6.06069,-17.999034 0.87453,-1.403314 1.78974,-2.786291 2.72528,-4.169267 7.91144,-11.470571 11.93834,-15.761866 13.91112,-15.761866 1.26095,0 1.64737,1.810073 1.64737,4.657377 0,4.494674 -0.97622,11.551922 -0.97622,18.039709 0,8.277522 1.58635,15.660176 8.76563,15.660176 l 0.38642,0.02034 c 1.42365,0 2.05412,-1.037232 2.05412,-1.769396 0,-0.38642 -0.18304,-0.691488 -0.52878,-0.691488 -0.10169,0 -0.20338,0.02034 -0.30507,0.06101 -0.85419,0.325406 -2.15582,0.77284 -3.2744,0.77284 -0.52878,0 -1.01689,-0.101689 -1.40331,-0.345744 -2.13548,-1.403315 -2.70494,-5.69461 -2.70494,-10.941785 0,-6.426774 0.87453,-14.338213 0.87453,-20.215864 0,-4.881094 -0.61014,-8.358873 -2.86765,-8.358873 -2.70494,0 -7.7284,4.92177 -16.81943,18.182074 3.11169,-7.138599 6.48778,-19.687078 6.48778,-28.208654 0,-5.267514 -1.28128,-9.009686 -4.71839,-9.009686 -2.64392,0 -6.56913,2.21683 -12.16205,7.708061 -10.94179,10.718068 -25.25966,33.089748 -33.41516,55.888524 3.80319,-19.585389 13.62639,-48.058436 19.60573,-64.12537 0.0813,0.183041 0.18304,0.264393 0.30507,0.264393 0.38642,0 0.9152,-0.833854 1.19993,-1.464329 1.09825,-2.521898 1.70838,-5.186162 1.70838,-6.955558 0,-1.240612 -0.28473,-2.033789 -0.93554,-2.033789 -0.36608,0 -0.87453,0.264392 -1.505,0.894867 -4.37265,4.392984 -24.34446,75.290876 -24.34446,84.442926 0,0.56946 0.0813,0.89486 0.24406,0.95588 0.10169,0.0407 0.18304,0.061 0.28473,0.061 z"
           style="font-family:'British Castilla';-inkscape-font-specification:'British Castilla';fill:url(#linearGradient437);fill-opacity:1"
           id="path563" />
        <path
           d="m 493.01349,87.178734 c 0.56946,0 1.05757,-0.142365 1.54568,-0.325406 2.72528,-1.037232 4.08792,-4.881094 4.08792,-8.521576 0,-1.708383 -0.28473,-3.355752 -0.87453,-4.657377 -0.061,-0.264393 -0.12203,-0.630475 -0.12203,-0.894867 0,-0.183041 0.0203,-0.284731 0.0813,-0.284731 h 0.0203 c 0.65081,0.305069 6.48779,3.457442 10.37233,3.457442 l 0.65081,-0.04068 c 0.46777,-0.04068 0.71182,-0.284731 0.71182,-0.528785 0,-0.284731 -0.28473,-0.549123 -0.85419,-0.549123 -4.23028,0 -8.27752,-1.464329 -11.87732,-4.433661 -0.2644,-0.223716 -0.44744,-0.305068 -0.56947,-0.305068 -0.26439,0 -0.34574,0.264393 -0.46777,0.38642 -0.1627,0.162703 -0.26439,0.38642 -0.26439,0.691488 0,0.305069 0.10169,0.711826 0.28473,1.199936 -0.40676,-0.203379 -0.81352,-0.305069 -1.19993,-0.305069 -0.56947,0 -1.13893,0.203379 -1.72873,0.711827 -1.64736,1.3423 -3.82352,5.775961 -3.82352,9.416443 0,2.054127 0.71183,3.843861 2.60325,4.677715 0.52879,0.223717 0.99656,0.305068 1.42365,0.305068 z m 0.36609,-0.874529 c -0.69149,0 -0.99656,-0.935543 -0.99656,-2.277844 0,-3.416765 1.91176,-9.497795 4.37265,-9.843539 0.44743,0.752502 0.63047,1.871086 0.63047,3.132035 0,3.294739 -1.36264,7.606371 -3.41677,8.806307 -0.22371,0.122027 -0.42709,0.183041 -0.58979,0.183041 z"
           style="font-family:'British Castilla';-inkscape-font-specification:'British Castilla';fill:url(#linearGradient439);fill-opacity:1"
           id="path565" />
        <path
           d="m 503.54852,114.87894 c 6.40644,0 14.37889,-17.24653 15.6195,-26.174864 0.0203,-0.142365 8.64361,-9.782525 10.79942,-12.792533 0.28474,-0.38642 0.38642,-0.650813 0.38642,-0.813516 0,-0.162703 -0.10168,-0.223717 -0.28473,-0.223717 -0.40675,0 -1.13892,0.366082 -1.22027,0.48811 -2.07446,2.623588 -7.74874,8.724955 -9.78252,11.18584 -0.40676,-1.728721 -1.42366,-3.071022 -3.62015,-3.071022 -0.56946,0 -1.22027,0.10169 -1.95244,0.284731 1.48467,-1.586356 4.73873,-5.674272 4.73873,-9.538471 0,-1.077908 -0.24405,-2.135479 -0.85419,-3.111697 -0.7525,-1.240612 -1.62703,-1.749059 -2.58291,-1.749059 -3.51846,0 -7.85043,7.118262 -9.4978,10.351986 -0.22371,0.447434 -0.3254,0.87453 -0.3254,1.26095 0,1.05757 0.71182,1.789734 1.40331,1.789734 0.65081,0 1.30163,-0.630475 1.36264,-2.237168 0.061,-1.789734 0.54912,-4.189605 4.47434,-8.379211 0.97621,-1.037232 1.91176,-1.525342 2.60325,-1.525342 0.79317,0 1.30162,0.610137 1.30162,1.728721 0,0.264393 -0.0203,0.569461 -0.0814,0.894867 -0.46777,2.440547 -4.31163,8.887658 -5.7963,10.616379 -0.67115,0.752502 -0.93554,1.362639 -0.93554,1.810072 0,0.569461 0.44743,0.894868 1.07791,0.894868 0.50844,0 1.13892,-0.223717 1.76939,-0.650813 1.28129,-0.915205 2.31852,-1.260949 3.09136,-1.260949 1.48467,0 2.11514,1.260949 2.11514,2.542236 0,0.711826 -0.20338,1.443991 -0.56946,1.9321 -2.33886,2.298182 -17.63295,16.331328 -17.63295,21.598838 0,0.34575 0.0814,0.67115 0.22372,0.93554 1.24061,2.25751 2.66426,3.21339 4.16926,3.21339 z m -1.81007,-2.90832 c -0.42709,0 -0.79318,-0.14236 -1.11858,-0.42709 -0.18304,-0.16271 -0.24406,-0.38642 -0.24406,-0.67115 0,-4.02691 15.90423,-20.073501 16.00592,-20.073501 v 0.122027 c 0,4.14893 -9.94523,21.049714 -14.64328,21.049714 z"
           style="font-family:'British Castilla';-inkscape-font-specification:'British Castilla';fill:url(#linearGradient441);fill-opacity:1"
           id="path567" />
        <path
           d="m 563.78936,67.023885 c -0.65081,0 -1.505,0.406757 -2.60325,1.403314 -1.85075,1.647369 -12.62983,13.992469 -15.29409,12.202735 -2.92866,-1.952438 -1.64737,-9.579147 -8.52158,-3.254063 -4.98278,4.616701 -10.31131,11.85699 -9.25374,7.240289 0.97622,-4.189605 9.00968,-11.734963 12.95524,-11.206178 1.48466,0.203379 -0.67115,-4.555687 -4.79975,-3.498117 -4.67771,1.179598 -10.47401,7.952115 -11.93834,12.365438 -0.77284,2.338857 -0.0407,5.59292 2.25751,5.531906 3.21338,-0.06101 8.82664,-7.362316 11.40955,-9.579147 3.5388,-3.030345 1.03724,2.521899 6.87421,3.986227 4.69805,1.179598 12.99591,-9.762188 16.69741,-12.670506 1.78973,-1.423652 -3.17271,14.480578 -1.9321,18.649846 0.32541,1.098246 1.13892,1.667707 2.15582,1.9321 1.91176,0.528785 1.9321,-1.423653 2.58291,-3.172711 0.97622,-2.60325 5.40988,-14.053483 8.58259,-13.626387 2.42021,0.325406 5.22684,5.97934 10.65705,2.98967 0.52879,-0.671151 1.03724,-2.257506 -0.95588,-1.464328 -6.48778,2.562574 -7.40299,-2.420209 -10.65705,-2.826967 -5.28785,-0.671151 -8.66394,14.277199 -9.25374,14.500916 -0.71183,-1.240611 1.09824,-7.728399 2.35919,-12.101045 0.71183,-2.379533 0.95588,-7.382655 -1.32196,-7.402992 z"
           style="font-family:'British Castilla';-inkscape-font-specification:'British Castilla';fill:url(#linearGradient443);fill-opacity:1"
           id="path569" />
        <path
           d="m 582.58158,105.60486 c 5.81664,0 17.04315,-22.981813 19.25998,-29.205208 0.0814,-0.223717 0.12203,-0.427095 0.12203,-0.589799 0,-0.569461 -0.40676,-0.854191 -0.85419,-0.854191 -0.52879,0 -1.15926,0.406758 -1.32196,1.179598 -0.81352,3.965888 -12.28409,27.51717 -16.86012,27.51717 -1.15926,0 -1.89142,-1.50501 -1.89142,-5.226842 0,-1.586355 0.14237,-3.599807 0.4271,-6.081029 1.01689,-8.745293 3.35575,-17.022815 5.99967,-25.157971 0.61014,-1.871086 1.24061,-3.721834 1.87109,-5.572582 6.50812,-0.528786 13.03659,-0.854192 19.72775,-0.854192 1.40332,0 2.82697,0 4.27096,0.04068 0.46777,0.833853 1.85075,1.240611 3.21339,1.240611 1.56601,0 3.11169,-0.549123 3.11169,-1.545679 l -0.0203,-0.223717 c -0.24406,-1.15926 -5.36921,-1.403315 -6.73185,-1.464328 -1.19993,-0.04068 -2.44054,-0.06101 -3.70149,-0.06101 -6.06069,0 -12.75186,0.488109 -19.30066,1.199936 1.99311,-5.714948 4.0269,-11.409557 5.83697,-17.226194 0.12203,-0.406758 0.20338,-0.752502 0.20338,-1.016895 0,-0.528785 -0.26439,-0.813515 -0.85419,-0.813515 -0.52878,0 -1.30162,0.203379 -2.39987,0.67115 -3.59981,1.484666 -2.76595,5.59292 -4.20994,10.921448 -0.69149,2.60325 -1.46433,5.226838 -2.27785,7.891101 -8.52157,1.016895 -16.57538,2.277844 -22.51404,3.132035 -0.36608,0.06101 -0.71183,0.08135 -1.07791,0.08135 -0.67115,0 -1.36264,-0.08135 -2.03379,-0.101689 -0.36608,0.04068 -0.40676,0.101689 -0.79318,0.366082 -0.10169,0.162703 -0.14236,0.325406 -0.14236,0.447433 0,0.345744 0.28473,0.549123 0.7525,0.549123 0.12203,0 0.24406,-0.02034 0.38642,-0.04068 0.99656,-0.203378 1.40332,-0.101689 2.88798,-0.488109 7.52502,-0.854191 14.80599,-1.728721 22.06661,-2.379533 -1.07791,3.498117 -2.17615,7.057248 -3.13203,10.636717 -1.85075,6.731842 -3.33542,13.545035 -3.49812,20.195525 l -0.0203,1.891424 c 0,7.93178 1.38298,10.94178 3.49812,10.94178 z"
           style="font-family:'British Castilla';-inkscape-font-specification:'British Castilla';fill:url(#linearGradient445);fill-opacity:1"
           id="path571" />
      </g>
    </g>
  </g>
</svg>
